<!-- <svg
  xmlns="http://www.w3.org/2000/svg"
  id="flag-icons-gb"
  viewBox="0 0 640 480"
>
  <path fill="#012169" d="M0 0h640v480H0z" />
  <path
    fill="#FFF"
    d="m75 0 244 181L562 0h78v62L400 241l240 178v61h-80L320 301 81 480H0v-60l239-178L0 64V0h75z"
  />
  <path
    fill="#C8102E"
    d="m424 281 216 159v40L369 281h55zm-184 20 6 35L54 480H0l240-179zM640 0v3L391 191l2-44L590 0h50zM0 0l239 176h-60L0 42V0z"
  />
  <path fill="#FFF" d="M241 0v480h160V0H241zM0 160v160h640V160H0z" />
  <path fill="#C8102E" d="M0 193v96h640v-96H0zM273 0v480h96V0h-96z" />
</svg> -->

<svg xmlns="http://www.w3.org/2000/svg" width="32" height="32" viewBox="0 0 32 32"><rect x="1" y="4" width="30" height="24" rx="4" ry="4" fill="#071b65"></rect><path d="M5.101,4h-.101c-1.981,0-3.615,1.444-3.933,3.334L26.899,28h.101c1.981,0,3.615-1.444,3.933-3.334L5.101,4Z" fill="#fff"></path><path d="M22.25,19h-2.5l9.934,7.947c.387-.353,.704-.777,.929-1.257l-8.363-6.691Z" fill="#b92932"></path><path d="M1.387,6.309l8.363,6.691h2.5L2.316,5.053c-.387,.353-.704,.777-.929,1.257Z" fill="#b92932"></path><path d="M5,28h.101L30.933,7.334c-.318-1.891-1.952-3.334-3.933-3.334h-.101L1.067,24.666c.318,1.891,1.952,3.334,3.933,3.334Z" fill="#fff"></path><rect x="13" y="4" width="6" height="24" fill="#fff"></rect><rect x="1" y="13" width="30" height="6" fill="#fff"></rect><rect x="14" y="4" width="4" height="24" fill="#b92932"></rect><rect x="14" y="1" width="4" height="30" transform="translate(32) rotate(90)" fill="#b92932"></rect><path d="M28.222,4.21l-9.222,7.376v1.414h.75l9.943-7.94c-.419-.384-.918-.671-1.471-.85Z" fill="#b92932"></path><path d="M2.328,26.957c.414,.374,.904,.656,1.447,.832l9.225-7.38v-1.408h-.75L2.328,26.957Z" fill="#b92932"></path><path d="M27,4H5c-2.209,0-4,1.791-4,4V24c0,2.209,1.791,4,4,4H27c2.209,0,4-1.791,4-4V8c0-2.209-1.791-4-4-4Zm3,20c0,1.654-1.346,3-3,3H5c-1.654,0-3-1.346-3-3V8c0-1.654,1.346-3,3-3H27c1.654,0,3,1.346,3,3V24Z" opacity=".15"></path><path d="M27,5H5c-1.657,0-3,1.343-3,3v1c0-1.657,1.343-3,3-3H27c1.657,0,3,1.343,3,3v-1c0-1.657-1.343-3-3-3Z" fill="#fff" opacity=".2"></path></svg>